<svg width="512" height="512" viewBox="0 0 512 512" fill="none" xmlns="http://www.w3.org/2000/svg">
<path fill-rule="evenodd" clip-rule="evenodd" d="M173.504 0C116.34 0 69.9985 46.342 69.9985 103.507V137.391C64.6089 143.13 61.7489 150.217 61.7488 157.507C61.7488 172.432 73.6856 185.343 94.3842 186.923C96.761 211.124 109.92 232.16 128.995 245.163V280.995H82.5065C69.1489 280.995 48.5939 286.368 31.309 301.203C13.826 316.207 0 340.626 0 378.003V512H10.0192V378.003C10.0192 343.381 22.6931 321.801 37.8342 308.806C53.1736 295.641 71.3671 291.014 82.5065 291.014H134.004H139.014V286.005V250.978C149.583 256.127 161.457 259.015 174.004 259.015C186.948 259.015 199.174 255.941 209.992 250.484V286.005V291.014H215.002H412.984V360.994H343.996H338.987V366.003V512H349.006V371.013H417.994H457.992H491.962C503.028 371.013 512 362.041 512 350.974V326.004V301.034C512 289.966 503.028 280.995 491.962 280.995H463.003V273.004C463.003 259.193 451.807 247.995 437.994 247.995C424.183 247.995 412.986 259.193 412.986 273.004V280.995H220.011V244.471C238.551 231.418 251.296 210.688 253.626 186.903C274.17 185.238 286.009 172.371 286.009 157.507C286.009 149.886 282.883 142.487 277.01 136.617V103.508C277.01 46.342 230.669 0 173.504 0ZM266.991 129.516V103.508C266.991 51.8756 225.135 10.0194 173.504 10.0194C121.873 10.0194 80.0177 51.8756 80.0177 103.507V129.896C84.0649 127.788 88.7399 126.191 93.9975 125.262V123.997C93.9975 118.459 98.4799 114.02 103.953 113.964C124.196 113.756 140.195 112.713 156.441 108.848C172.666 104.987 189.378 98.2509 210.888 86.4C214.639 84.3331 219.364 84.832 222.577 87.7977L250.787 113.839C252.842 115.736 254.01 118.405 254.01 121.202V123.508V125.307C258.846 126.183 263.185 127.628 266.991 129.516ZM104.017 179.006V133.507V127.008V124L104.02 123.997C104.027 123.99 104.033 123.986 104.037 123.985C104.038 123.984 104.039 123.984 104.04 123.984L104.041 123.983H104.044C104.047 123.982 104.05 123.982 104.055 123.982C124.549 123.773 141.427 122.72 158.76 118.595C176.114 114.466 193.684 107.318 215.722 95.1755C215.739 95.1661 215.759 95.162 215.779 95.1643C215.782 95.1647 215.785 95.1651 215.787 95.1656L243.991 121.202V123.508V135.507V179.006C243.991 217.66 212.657 248.996 174.004 248.996C135.351 248.996 104.017 217.66 104.017 179.006ZM254.01 135.523V176.806C269.633 175.135 275.99 165.824 275.99 157.507C275.99 149.05 269.465 138.948 254.01 135.523ZM93.9975 135.469V176.832C78.1926 175.234 71.768 165.868 71.768 157.507C71.7681 149.005 78.3637 138.84 93.9975 135.469ZM423.004 360.994V291.004H423.006V273.004C423.006 264.726 429.717 258.014 437.994 258.014C446.273 258.014 452.984 264.726 452.984 273.004V291.004H452.992V291.014H491.962C497.494 291.014 501.981 295.5 501.981 301.034V326.004V350.974C501.981 356.508 497.494 360.994 491.962 360.994H457.992H423.004Z" fill="url(#paint0_linear)"/>
<path fill-rule="evenodd" clip-rule="evenodd" d="M332 125.001C332 78.056 370.056 40 417.001 40C463.945 40 502.001 78.056 502.001 125.001C502.001 171.945 463.945 210.001 417.001 210.001C370.056 210.001 332 171.945 332 125.001ZM417.001 30C364.533 30 322 72.5332 322 125.001C322 177.468 364.533 220.001 417.001 220.001C469.468 220.001 512.001 177.468 512.001 125.001C512.001 72.5332 469.468 30 417.001 30ZM398.463 158.919C399.911 160.367 402.027 160.739 403.818 160.036C404.497 159.795 405.135 159.403 405.678 158.86L467.155 97.3824C469.104 95.4334 469.104 92.2734 467.155 90.3243C465.206 88.3753 462.046 88.3753 460.097 90.3243L402.039 148.383L373.414 119.758C371.465 117.81 368.306 117.81 366.358 119.758C364.409 121.706 364.409 124.865 366.358 126.814L398.463 158.919Z" fill="black"/>
<path fill-rule="evenodd" clip-rule="evenodd" d="M98.0127 291C98.1048 291.804 98.3093 292.615 98.6378 293.416L126.494 361.315C128.67 366.62 135.186 368.564 139.913 365.319L146.38 360.88L160.237 379.319L139.749 512H149.868L169.787 383H181.213L201.132 512H211.25L190.75 379.236L203.536 361.165L208.321 364.814C213.028 368.403 219.858 366.549 222.105 361.073L250.853 291H240.044L213.348 356.072L205.479 350.071L183.026 332.951L224.005 291H210.026L175.411 326.436L139.005 291H124.668L167.78 332.963L144.605 349.97L135.275 356.374L108.455 291H98.0127ZM154.535 355.086L167.997 373H182.912L195.579 355.098L175.442 339.744L154.535 355.086Z" fill="black"/>
<defs>
<linearGradient id="paint0_linear" x1="0.00195157" y1="-1.50824e-06" x2="512.002" y2="511.997" gradientUnits="userSpaceOnUse">
<stop stop-color="#54BBF6"/>
<stop offset="1" stop-color="#390065"/>
</linearGradient>
</defs>
</svg>
